# File created by Blade
# Date/Time:  Tue Apr 07 20:35:32 2015
# Frame Rate: 120.000 fps
#------------------------------------------------------
:FULLY-SPECIFIED
:DEGREES
1852
root 3.184618 34.436498 -4.439407 62.778535 -22.854589 -35.160657
Spine -27.855048 29.097139 -0.798556
Head -17.828471 5.644343 8.279542
LeftShoulder -26.766065 40.115722 18.460373
LeftArm 56.192465 -67.664392 -82.942660
LeftForeArm 6.180624 -0.000000 11.874607
LeftHand 11.335212 -0.000000 15.372332
LeftHandThumb1 -26.253704 0.000000 33.147579
RightShoulder 4.222297 10.773890 -20.710751
RightArm 23.853767 -13.930683 74.642394
RightForeArm 18.363141 -0.000000 50.029085
RightHand 4.960380 -0.000000 10.146023
RightHandThumb1 -24.326973 -0.000000 -32.862282
LeftUpLeg -43.238858 9.868283 29.065882
LeftLeg 5.673807 -0.000000 -0.000000
LeftFoot -3.402576 27.038639 -7.180221
LeftToeBase -13.145899 -0.000000 0.000000
RightUpLeg 3.152188 -43.711661 -26.178285
RightLeg 85.699028 -0.000000 -0.000000
RightFoot 40.490796 -29.162744 5.176462
RightToeBase 31.060684 -0.000000 -0.000000
1853
root 3.176927 34.449895 -4.426255 62.785742 -22.973118 -35.272316
Spine -27.812729 29.130405 -0.811734
Head -17.700004 5.771978 8.420659
LeftShoulder -26.723666 40.113885 18.557863
LeftArm 55.820570 -67.559234 -82.548744
LeftForeArm 5.922594 -0.000000 11.375563
LeftHand 11.383501 -0.000000 15.450096
LeftHandThumb1 -26.253704 0.000000 33.147579
RightShoulder 4.447004 11.129117 -20.700169
RightArm 24.074865 -14.217022 74.787352
RightForeArm 17.703373 -0.000000 50.086873
RightHand 4.911989 -0.000000 10.085991
RightHandThumb1 -24.326973 -0.000000 -32.862282
LeftUpLeg -43.081073 10.461429 28.649607
LeftLeg 5.502478 -0.000000 -0.000000
LeftFoot -3.607843 26.495087 -7.893997
LeftToeBase -12.778025 -0.000000 0.000000
RightUpLeg 2.920001 -44.175028 -25.908797
RightLeg 85.664643 -0.000000 -0.000000
RightFoot 40.522959 -29.173095 5.269388
RightToeBase 31.034796 -0.000000 -0.000000
1854
root 3.169921 34.460623 -4.414800 62.769994 -23.089584 -35.373280
Spine -27.743122 29.160672 -0.806483
Head -17.562441 5.843703 8.523584
LeftShoulder -26.724458 40.166842 18.579042
LeftArm 55.863885 -67.479249 -82.532701
LeftForeArm 5.606766 -0.000000 10.903672
LeftHand 11.391882 0.000000 15.413073
LeftHandThumb1 -26.253704 0.000000 33.147579
RightShoulder 4.695301 11.385562 -20.760836
RightArm 24.256948 -14.376174 74.969629
RightForeArm 17.191351 -0.000000 50.244418
RightHand 4.802160 0.000000 10.159320
RightHandThumb1 -24.326973 -0.000000 -32.862282
LeftUpLeg -42.930204 11.090555 28.201201
LeftLeg 5.350377 -0.000000 -0.000000
LeftFoot -3.861743 25.804551 -8.630812
LeftToeBase -12.433771 -0.000000 0.000000
RightUpLeg 2.698429 -44.537219 -25.642758
RightLeg 85.664855 -0.000000 -0.000000
RightFoot 40.588504 -29.116452 5.303942
RightToeBase 30.841715 -0.000000 -0.000000
1855
root 3.163880 34.467428 -4.404297 62.700341 -23.198092 -35.432041
Spine -27.624313 29.153123 -0.790145
Head -17.430187 5.911538 8.621223
LeftShoulder -26.741329 40.204978 18.580647
LeftArm 56.175891 -67.445029 -82.789125
LeftForeArm 5.324666 -0.000000 10.454973
LeftHand 11.598969 0.000000 15.351142
LeftHandThumb1 -26.253704 0.000000 33.147579
RightShoulder 4.976829 11.582412 -20.876158
RightArm 24.375503 -14.430806 75.191884
RightForeArm 16.901912 0.000000 50.448228
RightHand 4.836500 -0.000000 10.324166
RightHandThumb1 -24.326973 -0.000000 -32.862282
LeftUpLeg -42.777303 11.680167 27.749474
LeftLeg 5.213657 -0.000000 -0.000000
LeftFoot -4.011558 25.106780 -9.283125
LeftToeBase -12.811066 -0.000000 0.000000
RightUpLeg 2.549395 -44.847590 -25.475139
RightLeg 85.717226 -0.000000 -0.000000
RightFoot 40.700627 -28.998958 5.214036
RightToeBase 30.562431 -0.000000 -0.000000
1856
root 3.158045 34.473592 -4.393523 62.613637 -23.288881 -35.493876
Spine -27.493902 29.150739 -0.759183
Head -17.296273 5.934000 8.747255
LeftShoulder -26.682863 40.167028 18.633523
LeftArm 56.152330 -67.382542 -82.727257
LeftForeArm 5.027784 -0.000000 10.149382
LeftHand 11.491289 0.000000 15.403495
LeftHandThumb1 -26.253704 0.000000 33.147579
RightShoulder 5.197413 11.690930 -20.975695
RightArm 24.574037 -14.511271 75.273406
RightForeArm 16.890516 -0.000000 50.618575
RightHand 4.920564 -0.000000 10.049006
RightHandThumb1 -24.326973 -0.000000 -32.862282
LeftUpLeg -42.598066 12.221863 27.368122
LeftLeg 5.083678 -0.000000 -0.000000
LeftFoot -4.247560 24.363897 -10.076782
LeftToeBase -12.521926 -0.000000 0.000000
RightUpLeg 2.400786 -45.006672 -25.253016
RightLeg 85.772564 -0.000000 -0.000000
RightFoot 40.659405 -28.978818 5.319725
RightToeBase 30.493802 -0.000000 -0.000000
